<svg xmlns="http://www.w3.org/2000/svg" width="24.676" height="23.23" viewBox="0 0 24.676 23.23"><defs><style>.a{fill:#727c8e;}</style></defs><path class="a" d="M293.16,308.117l-10.946,9.836a.619.619,0,0,0-.214.468v11.869a.619.619,0,0,0,.619.619h7.2a.619.619,0,0,0,.619-.619v-8.07a.619.619,0,0,1,.619-.619h6.555a.619.619,0,0,1,.619.619v8.07a.619.619,0,0,0,.619.619h7.2a.619.619,0,0,0,.619-.619V318.421a.619.619,0,0,0-.214-.468l-10.946-9.836A1.8,1.8,0,0,0,293.16,308.117Z" transform="translate(-282 -307.678)"/></svg>