<svg xmlns="http://www.w3.org/2000/svg" width="20.418" height="24.008" viewBox="0 0 20.418 24.008"><defs><style>.a{fill:#727c8e;}</style></defs><path class="a" d="M464.314,308H447.785a.785.785,0,0,0-.785.785v1.234h.9a1.346,1.346,0,1,1,0,2.692H447v5.834h.9a1.346,1.346,0,1,1,0,2.692H447V327.3h.9a1.346,1.346,0,1,1,0,2.692H447v1.234a.785.785,0,0,0,.785.785h16.529a3.1,3.1,0,0,0,3.1-3.1V311.1A3.1,3.1,0,0,0,464.314,308Zm-12.229,10.632a6.451,6.451,0,0,1,12.042,0,1.391,1.391,0,0,1-1.3,1.892h-9.445A1.391,1.391,0,0,1,452.085,318.632Zm12.191,5.827a1.055,1.055,0,0,1-1.052,1.052H452.988a1.055,1.055,0,0,1-1.052-1.052v-.587a1.055,1.055,0,0,1,1.052-1.052h10.237a1.055,1.055,0,0,1,1.052,1.052Zm0-2.661a.45.45,0,0,1-.449.449H452.385a.45.45,0,0,1-.449-.449v-.251a.45.45,0,0,1,.449-.449h11.443a.45.45,0,0,1,.449.449Z" transform="translate(-447 -308)"/></svg>