<svg xmlns="http://www.w3.org/2000/svg" width="24.771" height="23.723" viewBox="0 0 24.771 23.723"><defs><style>.a{fill:#727c8e;}</style></defs><path class="a" d="M587.16,331.081l-5.054,2.657a1.678,1.678,0,0,1-2.435-1.769l.965-5.628a1.678,1.678,0,0,0-.483-1.486l-4.089-3.986a1.678,1.678,0,0,1,.93-2.863l5.651-.821a1.678,1.678,0,0,0,1.264-.918l2.527-5.12a1.679,1.679,0,0,1,3.01,0l2.527,5.12a1.678,1.678,0,0,0,1.264.918l5.651.821a1.678,1.678,0,0,1,.93,2.863l-4.089,3.986a1.678,1.678,0,0,0-.483,1.486l.965,5.628a1.678,1.678,0,0,1-2.435,1.769l-5.054-2.657A1.678,1.678,0,0,0,587.16,331.081Z" transform="translate(-575.555 -310.212)"/></svg>