<svg xmlns="http://www.w3.org/2000/svg" width="35.715" height="25.25" viewBox="0 0 35.715 25.25">
  <g id="icon" transform="translate(-711 -309.658)">
    <path id="Path" d="M747,336v16.06a2.885,2.885,0,0,0,2.876,2.876H770.73a2.885,2.885,0,0,0,2.876-2.876V336Zm6.871,7.283a6.892,6.892,0,0,1,12.865,0,1.486,1.486,0,0,1-1.387,2.021h-10.09A1.486,1.486,0,0,1,753.871,343.283Zm13.024,6.225a1.127,1.127,0,0,1-1.124,1.123H754.835a1.127,1.127,0,0,1-1.123-1.123v-.627a1.127,1.127,0,0,1,1.123-1.124h10.936a1.127,1.127,0,0,1,1.124,1.124Zm0-2.843a.481.481,0,0,1-.479.479H754.191a.481.481,0,0,1-.479-.479V346.4a.481.481,0,0,1,.479-.479h12.225a.481.481,0,0,1,.479.479Z" transform="translate(-27.371 -20.028)" fill="#ff9f1c"/>
    <path id="Path-2" data-name="Path" d="M772.565,314.376v-1.738a2.989,2.989,0,0,0-2.98-2.98H747.98a2.989,2.989,0,0,0-2.98,2.98v1.738Z" transform="translate(-25.85)" fill="#ff9f1c"/>
    <path id="Path-3" data-name="Path" d="M711,336h7.431v2.237" transform="translate(0 -20.028)" fill="#ff9f1c"/>
    <path id="Path-4" data-name="Path" d="M723.4,352.333h4.458v2.237" transform="translate(-9.428 -32.446)" fill="#ff9f1c"/>
    <path id="Path-5" data-name="Path" d="M732.08,368.667h2.378V370.9" transform="translate(-16.027 -44.864)" fill="#ff9f1c"/>
  </g>
</svg>
