<svg xmlns="http://www.w3.org/2000/svg" width="25.577" height="23.908" viewBox="0 0 25.577 23.908"><defs><style>.a{fill:#727c8e;}</style></defs><g transform="translate(-907.67 -310)"><path class="a" d="M2.846,0H7.969a0,0,0,0,1,0,0V5.692a0,0,0,0,1,0,0H2.846A2.846,2.846,0,0,1,0,2.846v0A2.846,2.846,0,0,1,2.846,0Z" transform="translate(925.278 319.108)"/><path class="a" d="M909.6,310a1.754,1.754,0,0,0-1.445.752,2.757,2.757,0,0,0-.489,1.569v18.8a2.794,2.794,0,0,0,2.785,2.785h19.551a2.794,2.794,0,0,0,2.785-2.785v-5.8h-5.037a3.376,3.376,0,0,1-3.366-3.366v-.464a3.376,3.376,0,0,1,3.366-3.366h5.037v-5.8c0-.078-.005-.155-.012-.232H910.549a1.536,1.536,0,0,1-1.257-.62c-.012-.017-.024-.034-.035-.051a.616.616,0,0,1,.515-.953h22.091a.232.232,0,1,0,0-.464Z" transform="translate(0)"/></g></svg>